<svg version="1.1" id="Calque_1" xmlns="http://www.w3.org/2000/svg" xmlns:xlink="http://www.w3.org/1999/xlink" x="0px" y="0px"
width="39.686px" height="42.52px" viewBox="0 0 39.686 42.52" enable-background="new 0 0 39.686 42.52" xml:space="preserve">
<rect x="0" y="0" opacity="0.6" fill="#94C11C" enable-background="new    " width="39.685" height="42.52"/>
<g>
<path fill="#94C11C" d="M19.843,4.252c-9.396,0-17.009,7.616-17.009,17.008c0,8.818,6.714,16.07,15.31,16.922
		c0.559,0.058,1.125,0.086,1.699,0.086c3.463,0,6.683-1.038,9.37-2.813c3.556-2.354,6.17-6.004,7.178-10.279
		c0.047-0.193,0.093-0.389,0.131-0.586c0.215-1.076,0.33-2.189,0.33-3.328C36.851,11.868,29.235,4.252,19.843,4.252z"/>
<g>
<path id="icon_7_" fill="#FFFFFF" d="M24.158,14.094l-4.315-3.293L8.431,19.51l1.796,2.351l1.229-0.938l2.043,10.797h12.689
			l2.044-10.797l1.229,0.938l1.793-2.35l-4.142-3.16L24.158,14.094z M16.885,30.075h-1.742L13.1,19.877l6.743-5.151l6.745,5.151
			l-2.043,10.198h-1.743H16.885z"/>
<circle fill="#FFFFFF" cx="19.818" cy="21.053" r="2.852"/>
</g>
</g>
</svg>