<?xml version="1.0" encoding="utf-8"?>
<!-- Generator: Adobe Illustrator 16.0.0, SVG Export Plug-In . SVG Version: 6.00 Build 0)  -->
<!DOCTYPE svg PUBLIC "-//W3C//DTD SVG 1.1//EN" "http://www.w3.org/Graphics/SVG/1.1/DTD/svg11.dtd">
<svg version="1.1" id="Calque_1" xmlns="http://www.w3.org/2000/svg" xmlns:xlink="http://www.w3.org/1999/xlink" x="0px" y="0px"
	 width="39.686px" height="42.52px" viewBox="0 0 39.686 42.52" enable-background="new 0 0 39.686 42.52" xml:space="preserve">
<rect x="0" y="0" opacity="0.6" fill="#E94D18" width="39.686" height="42.52"/>
<g>
	<g id="view_5_">
		<circle id="back_8_" fill="#E94D18" cx="19.842" cy="21.26" r="17.008"/>
	</g>
	<path fill="#FFFFFF" d="M32.347,12.805c-1.704-0.002-3.404,0.084-5.1,0.26c-1.33,0.137-2.651,0.336-3.961,0.613
		c-1.944,0.412-3.837,0.984-5.645,1.82c-1.651,0.764-3.176,1.723-4.517,2.959c-1.791,1.652-3.072,3.629-3.784,5.963
		c-0.413,1.355-0.626,2.738-0.546,4.16c0.003,0.055-0.017,0.121-0.049,0.168c-0.747,1.1-1.478,2.211-2.132,3.367
		c-0.014,0.023-0.027,0.045-0.042,0.061h2.27c3.231-5.441,7.361-9.98,12.812-13.244c0,0.016-0.006,0.027-0.015,0.033
		c-1.104,1.021-2.148,2.105-3.141,3.236c-0.87,0.99-1.721,1.998-2.553,3.02c-1.046,1.285-2.011,2.631-2.87,4.047
		c-0.087,0.145-0.168,0.287-0.256,0.439c0.026,0.008,0.036,0.012,0.046,0.012c0.637,0.053,1.272,0.023,1.905-0.053
		c0.865-0.104,1.712-0.295,2.543-0.555c2.524-0.791,4.811-2.027,6.866-3.691c0.055-0.045,0.108-0.09,0.166-0.139
		c-0.02-0.012-0.024-0.02-0.031-0.02c-1.043-0.148-2.072-0.369-3.085-0.658c-0.615-0.174-1.223-0.371-1.786-0.682
		c-0.125-0.068-0.24-0.152-0.359-0.229c0.043-0.025,0.073-0.027,0.103-0.025c0.408,0.023,0.818,0.055,1.229,0.066
		c0.847,0.029,1.694,0.057,2.542,0.059c0.89,0.002,1.779-0.027,2.669-0.049c0.058,0,0.128-0.031,0.173-0.068
		c0.337-0.283,0.682-0.563,1-0.865c0.791-0.754,1.485-1.592,2.124-2.477c1.477-2.041,2.654-4.24,3.455-6.635
		c0.097-0.293,0.181-0.588,0.273-0.895C32.539,12.805,32.443,12.805,32.347,12.805z"/>
</g>
</svg>
