<?xml version="1.0" encoding="utf-8"?>
<!-- Generator: Adobe Illustrator 16.0.0, SVG Export Plug-In . SVG Version: 6.00 Build 0)  -->
<!DOCTYPE svg PUBLIC "-//W3C//DTD SVG 1.1//EN" "http://www.w3.org/Graphics/SVG/1.1/DTD/svg11.dtd">
<svg version="1.1" id="Calque_1" xmlns="http://www.w3.org/2000/svg" xmlns:xlink="http://www.w3.org/1999/xlink" x="0px" y="0px"
	 width="39.686px" height="42.52px" viewBox="0 0 39.686 42.52" enable-background="new 0 0 39.686 42.52" xml:space="preserve">
<rect x="0" y="0" opacity="0.6" fill="#BE1421" enable-background="new    " width="39.686" height="42.52"/>
<g>
	<circle id="back_13_" fill="#BE1421" cx="19.843" cy="21.26" r="17.009"/>
	<g>
		<path fill="#FFFFFF" d="M32.302,27.781c0.023-0.046,0.044-0.089,0.059-0.138c0.015-0.045,0.021-0.09,0.025-0.139
			c0.007-0.053,0.008-0.104,0.002-0.158c-0.002-0.022,0.006-0.047,0.001-0.07l-1.888-9.774c-0.007-0.035-0.028-0.063-0.039-0.096
			c-0.012-0.033-0.01-0.066-0.026-0.099c-0.008-0.018-0.021-0.024-0.029-0.041c-0.028-0.051-0.063-0.09-0.101-0.131
			c-0.032-0.033-0.059-0.068-0.094-0.094c-0.042-0.033-0.088-0.058-0.137-0.08c-0.043-0.021-0.082-0.041-0.126-0.053
			c-0.047-0.015-0.093-0.017-0.141-0.021c-0.056-0.004-0.108-0.008-0.166,0c-0.018,0.002-0.032-0.004-0.049,0
			c-0.034,0.006-0.06,0.027-0.092,0.037c-0.033,0.012-0.068,0.01-0.102,0.027l-2.838,1.387c0.453-0.904,0.823-2.027,0.823-3.305
			c0-4.043-3.278-7.335-7.313-7.355c-0.012,0-0.02,0-0.026,0c-0.009,0-0.018,0-0.026,0c-4.037,0.021-7.313,3.313-7.313,7.355
			c0,1.266,0.363,2.381,0.813,3.28l-3.541,1.73c-0.014,0.006-0.021,0.02-0.037,0.026c-0.053,0.029-0.098,0.068-0.143,0.111
			c-0.029,0.027-0.062,0.053-0.085,0.084c-0.032,0.043-0.055,0.088-0.078,0.135c-0.021,0.048-0.043,0.093-0.056,0.14
			c-0.005,0.02-0.019,0.033-0.021,0.051L7.672,30.37c-0.004,0.022,0.004,0.047,0.002,0.069c-0.006,0.054-0.006,0.104,0,0.158
			c0.006,0.051,0.017,0.101,0.032,0.15c0.008,0.022,0.004,0.047,0.014,0.071c0.014,0.029,0.034,0.054,0.051,0.08
			c0.016,0.025,0.027,0.05,0.044,0.072c0.05,0.064,0.104,0.121,0.168,0.166c0.009,0.008,0.016,0.016,0.023,0.021
			c0.076,0.049,0.161,0.082,0.251,0.102c0.01,0.004,0.018,0.01,0.028,0.012c0.049,0.011,0.097,0.015,0.145,0.015
			c0.001,0,0.001,0,0.003,0l0,0l0,0c0.101,0,0.193-0.021,0.282-0.06c0.007,0,0.015,0,0.021-0.004l6.94-2.973l8.478,2.992
			c0.007,0.002,0.013,0,0.019,0.002c0.078,0.024,0.157,0.041,0.241,0.041c0.094,0,0.186-0.021,0.271-0.056
			c0.01-0.004,0.021-0.002,0.031-0.008l7.218-3.092c0.023-0.01,0.037-0.029,0.061-0.041c0.046-0.025,0.087-0.055,0.126-0.088
			c0.038-0.031,0.071-0.064,0.104-0.104C32.255,27.865,32.278,27.823,32.302,27.781z M11.006,21.265l3.319-1.621l1.404,1.91
			l-0.533,5.221l-5.729,2.457L11.006,21.265z M16.228,26.808l0.411-4.018l2.773,3.771c0.145,0.197,0.401,0.314,0.647,0.314
			c0.245,0,0.479-0.117,0.623-0.314l2.464-3.352l0.641,6.266L16.228,26.808z M24.826,29.497l-0.771-7.523l0.789-1.074l4.328-2.114
			l1.577,8.174L24.826,29.497z M20.049,9.225c3.196,0.007,5.792,2.61,5.792,5.811c0,1.51-0.673,2.782-1.242,3.592
			c-0.002,0.004-0.005,0.004-0.006,0.008l-4.544,6.182l-4.528-6.157c-0.003-0.005-0.006-0.009-0.008-0.011
			c-0.573-0.809-1.258-2.094-1.258-3.612C14.255,11.835,16.852,9.232,20.049,9.225z"/>
		<path fill="#FFFFFF" d="M20.061,18.294c1.796,0,3.256-1.463,3.256-3.26c0-1.8-1.46-3.263-3.256-3.263s-3.256,1.463-3.256,3.263
			C16.805,16.831,18.265,18.294,20.061,18.294z M20.061,12.804c1.228,0,2.227,1,2.227,2.23c0,1.229-0.999,2.229-2.227,2.229
			c-1.229,0-2.226-1-2.226-2.229C17.836,13.804,18.833,12.804,20.061,12.804z"/>
	</g>
</g>
</svg>
