<?xml version="1.0" encoding="utf-8"?>
<!-- Generator: Adobe Illustrator 16.0.0, SVG Export Plug-In . SVG Version: 6.00 Build 0)  -->
<!DOCTYPE svg PUBLIC "-//W3C//DTD SVG 1.1//EN" "http://www.w3.org/Graphics/SVG/1.1/DTD/svg11.dtd">
<svg version="1.1" id="Calque_1" xmlns="http://www.w3.org/2000/svg" xmlns:xlink="http://www.w3.org/1999/xlink" x="0px" y="0px"
	 width="39.686px" height="42.52px" viewBox="0 0 39.686 42.52" enable-background="new 0 0 39.686 42.52" xml:space="preserve">
<rect x="0" y="0" opacity="0.6" fill="#EA9510" width="39.686" height="42.52"/>
<g>
	<circle id="back_16_" fill="#EA9510" cx="19.843" cy="21.26" r="17.009"/>
	<g>
		<path fill="#FFFFFF" d="M8.511,30.276c0.001-0.007,0.001-0.014,0.002-0.021"/>
		<path fill="#FFFFFF" d="M31.175,30.24c-0.089-0.746-0.143-1.485-0.272-2.211c-0.248-1.389-0.827-2.635-1.711-3.74
			c-0.896-1.121-2.005-1.961-3.3-2.563c-1.04-0.483-2.123-0.844-3.267-0.986c-0.712-0.089-1.428-0.147-2.145-0.202
			c-1.793-0.139-3.55,0.093-5.261,0.615c-1.249,0.38-2.401,0.971-3.426,1.803c-1.336,1.083-2.286,2.431-2.781,4.071
			c-0.202,0.668-0.282,1.375-0.395,2.068c-0.058,0.365-0.069,0.738-0.105,1.159c2.944,2.819,6.939,4.552,11.339,4.552
			C19.852,34.807,27.46,34.707,31.175,30.24z"/>
		<path d="M19.592,19.182c-2.76-0.099-5.724-2.474-5.469-6.166c0.193-2.818,2.482-5.299,5.724-5.302
			c3.15-0.003,5.741,2.53,5.687,5.741C25.635,16.526,22.965,19.302,19.592,19.182z"/>
		<path fill="#FFFFFF" d="M19.847,7.714c-3.241,0.003-5.53,2.483-5.724,5.302c-0.255,3.692,2.709,6.067,5.469,6.166
			c3.373,0.12,6.043-2.656,5.941-5.727C25.588,10.244,22.997,7.711,19.847,7.714z"/>
	</g>
</g>
</svg>
