<?xml version="1.0" encoding="utf-8"?>
<!-- Generator: Adobe Illustrator 16.0.0, SVG Export Plug-In . SVG Version: 6.00 Build 0)  -->
<!DOCTYPE svg PUBLIC "-//W3C//DTD SVG 1.1//EN" "http://www.w3.org/Graphics/SVG/1.1/DTD/svg11.dtd">
<svg version="1.1" id="Calque_1" xmlns="http://www.w3.org/2000/svg" xmlns:xlink="http://www.w3.org/1999/xlink" x="0px" y="0px"
	 width="39.686px" height="42.52px" viewBox="0 0 39.686 42.52" enable-background="new 0 0 39.686 42.52" xml:space="preserve">
<rect x="0.001" y="0" opacity="0.6" fill="#006699" enable-background="new    " width="39.685" height="42.52"/>
<g>
	<g id="view_1_">
		<circle id="back_1_" fill="#006699" cx="19.844" cy="21.26" r="17.008"/>
	</g>
	<g>
		<path fill="#FFFFFF" d="M33.05,20.726c-2.882-4.813-6.954-6.96-13.205-6.96S9.521,15.912,6.64,20.726
			c-0.102,0.168-0.122,0.354-0.1,0.534c-0.022,0.18-0.002,0.366,0.1,0.533c2.881,4.813,6.953,6.961,13.205,6.961
			c6.251,0,10.323-2.146,13.205-6.961c0.1-0.167,0.121-0.354,0.097-0.533C33.171,21.08,33.149,20.894,33.05,20.726z M19.844,26.256
			c-2.755,0-4.997-2.241-4.997-4.996s2.241-4.997,4.997-4.997c2.755,0,4.996,2.241,4.996,4.997
			C24.841,24.015,22.599,26.256,19.844,26.256z M8.267,21.26c1.448-2.327,3.557-4.623,7.794-5.477
			c-1.736,1.202-2.878,3.208-2.878,5.477c0,2.268,1.142,4.271,2.878,5.477C11.823,25.882,9.715,23.586,8.267,21.26z M23.628,26.737
			c1.736-1.204,2.878-3.209,2.878-5.477c0-2.269-1.142-4.273-2.878-5.477c4.237,0.854,6.345,3.148,7.792,5.477
			C29.972,23.586,27.865,25.882,23.628,26.737z"/>
		<path fill="#FFFFFF" d="M22.189,20.295l-0.125,0.016c-0.83,0-1.521-0.654-1.57-1.49c-0.015-0.222-0.115-0.43-0.284-0.576
			c-0.168-0.146-0.389-0.209-0.61-0.203c-1.678,0.13-2.994,1.544-2.994,3.219c0,1.785,1.453,3.238,3.24,3.238
			c1.785,0,3.238-1.453,3.238-3.238c0-0.067-0.006-0.134-0.018-0.194C23.033,20.613,22.608,20.268,22.189,20.295z"/>
	</g>
</g>
</svg>
