<?xml version="1.0" encoding="utf-8"?>
<!-- Generator: Adobe Illustrator 16.0.0, SVG Export Plug-In . SVG Version: 6.00 Build 0)  -->
<!DOCTYPE svg PUBLIC "-//W3C//DTD SVG 1.1//EN" "http://www.w3.org/Graphics/SVG/1.1/DTD/svg11.dtd">
<svg version="1.1" id="Calque_1" xmlns="http://www.w3.org/2000/svg" xmlns:xlink="http://www.w3.org/1999/xlink" x="0px" y="0px"
	 width="39.686px" height="42.52px" viewBox="0 0 39.686 42.52" enable-background="new 0 0 39.686 42.52" xml:space="preserve">
<rect x="0" y="0" opacity="0.6" fill="#006699" enable-background="new    " width="39.684" height="42.52"/>
<g>
	<g id="view_3_">
		<circle id="back_4_" fill="#006699" cx="20.913" cy="21.26" r="15.888"/>
	</g>
	<g>
		<path fill="#FFFFFF" d="M2.835,23.79c0,0,0.38-0.154,0.999-0.396c-0.003-0.028-0.007-0.057-0.01-0.088L2.835,23.79z"/>
		<path fill="#FFFFFF" d="M23.328,23.281c-0.238-1.753,0.767-3.347,1.569-2.441c0.549,1.104,2.396,1.912,6.187,0.094
			c2.08-1.271,3.711-2.92,4.992-4.721c-0.722-2.18-1.925-4.158-3.627-5.967l-7.508,9.336c-1.439,0.508-1.679-1.244-3.046-3.14
			c-1.664-2.274-4.222-1.104-5.127-0.301c-0.903,0.801-3.66,2.635-3.66,2.635l-9.284,4.529c0.003,0.031,0.007,0.06,0.01,0.088
			c1.902-0.746,6.076-2.348,8.496-2.996c2.6-0.588,4.897,1.193,6.139,3.188c3.127,6.133,4.779,5.768,9.987,8.147
			c1.409,0.486,2.511,1.037,3.439,1.627c0.043-0.043,0.086-0.082,0.129-0.125c0.343-0.34,0.66-0.688,0.966-1.043
			C25.287,29.376,23.517,24.685,23.328,23.281z"/>
		<path fill="#FFFFFF" d="M24.828,21.404c2.781,3.66,7.543,2.302,12.022-1.129c-0.047-0.709-0.129-1.401-0.256-2.073
			C29.541,26.247,24.828,21.404,24.828,21.404z"/>
		<path fill="#FFFFFF" d="M24.261,21.64c1.148,3.627,7.42,4.857,11.828,3.576c0.152-0.045,0.303-0.096,0.453-0.146
			c0.148-0.729,0.25-1.479,0.303-2.254C27.818,27.603,24.261,21.64,24.261,21.64z"/>
		<path fill="#FFFFFF" d="M23.847,21.892c1.437,3.168,2.668,4.318,7.27,6.045c1.366,0.515,2.813,0.688,4.265,0.633
			c0.295-0.62,0.544-1.264,0.752-1.92C26.72,28.113,23.847,21.892,23.847,21.892z"/>
		<path fill="#FFFFFF" d="M23.737,22.759c0.563,2.826,2.196,5.326,8.083,7.793c0.647,0.271,1.31,0.48,1.976,0.641
			c0.375-0.506,0.713-1.022,1.02-1.555C26.043,28.763,23.737,22.759,23.737,22.759z"/>
	</g>
</g>
</svg>
