<?xml version="1.0" encoding="utf-8"?>
<!-- Generator: Adobe Illustrator 16.0.0, SVG Export Plug-In . SVG Version: 6.00 Build 0)  -->
<!DOCTYPE svg PUBLIC "-//W3C//DTD SVG 1.1//EN" "http://www.w3.org/Graphics/SVG/1.1/DTD/svg11.dtd">
<svg version="1.1" id="Calque_1" xmlns="http://www.w3.org/2000/svg" xmlns:xlink="http://www.w3.org/1999/xlink" x="0px" y="0px"
	 width="201.26px" height="38.835px" viewBox="0 0 201.26 38.835" enable-background="new 0 0 201.26 38.835" xml:space="preserve">
<g>
	<line fill="none" stroke="#FFFFFF" stroke-width="1.5" stroke-miterlimit="10" x1="37.657" y1="20.473" x2="167.657" y2="20.473"/>
	<g>
		<g id="view">
			<circle id="back_6_" fill="#006699" cx="19.842" cy="19.842" r="19.843"/>
		</g>
		<g>
			<path fill="#FFFFFF" d="M35.249,19.22c-3.362-5.616-8.113-8.12-15.405-8.12c-7.294,0-12.044,2.504-15.406,8.12
				c-0.117,0.196-0.142,0.413-0.114,0.622c-0.027,0.21-0.003,0.428,0.114,0.623c3.361,5.616,8.112,8.121,15.406,8.121
				c7.292,0,12.043-2.505,15.405-8.121c0.117-0.195,0.142-0.413,0.114-0.623C35.39,19.633,35.365,19.416,35.249,19.22z
				 M19.843,25.671c-3.214,0-5.829-2.614-5.829-5.829c0-3.213,2.615-5.829,5.829-5.829c3.214,0,5.829,2.615,5.829,5.829
				C25.672,23.057,23.057,25.671,19.843,25.671z M6.337,19.842c1.69-2.714,4.148-5.393,9.092-6.388
				c-2.026,1.403-3.357,3.742-3.357,6.388c0,2.647,1.331,4.984,3.357,6.391C10.485,25.235,8.027,22.557,6.337,19.842z
				 M24.257,26.232c2.025-1.406,3.357-3.743,3.357-6.391c0-2.646-1.332-4.985-3.357-6.388c4.943,0.995,7.402,3.674,9.091,6.388
				C31.659,22.557,29.2,25.235,24.257,26.232z"/>
			<path fill="#FFFFFF" d="M22.579,18.717l-0.146,0.018c-0.969,0-1.774-0.763-1.833-1.737c-0.017-0.259-0.136-0.502-0.332-0.673
				c-0.197-0.171-0.453-0.244-0.713-0.236c-1.958,0.15-3.491,1.8-3.491,3.753c0,2.084,1.695,3.779,3.778,3.779
				c2.083,0,3.778-1.695,3.778-3.779c0-0.078-0.008-0.155-0.019-0.226C23.563,19.088,23.067,18.686,22.579,18.717z"/>
		</g>
	</g>
	<circle id="back_36_" fill="#E94D18" cx="101.273" cy="19.843" r="19.843"/>
	<path id="icon_36_" fill="#FFFFFF" d="M111.733,11.998h-1.745v-1.743h-1.742v1.743H99.53c0-0.838-0.783-1.743-1.743-1.743h-3.485
		c-0.96,0-1.744,0.904-1.744,1.743h-1.743c-0.958,0-1.744,0.785-1.744,1.743v13.947c0,0.957,0.786,1.743,1.744,1.743h20.918
		c0.958,0,1.743-0.786,1.743-1.743V13.741C113.476,12.783,112.691,11.998,111.733,11.998z M93.245,17.877
		c-0.698,0-1.271-0.568-1.271-1.27c0-0.699,0.572-1.269,1.271-1.269c0.7,0,1.271,0.57,1.271,1.269
		C94.517,17.31,93.945,17.877,93.245,17.877z M103.453,27.512c-3.669,0-6.651-2.982-6.651-6.652c0-3.666,2.982-6.651,6.651-6.651
		c3.668,0,6.652,2.985,6.652,6.651C110.105,24.529,107.121,27.512,103.453,27.512z M103.453,16.47c-2.419,0-4.388,1.971-4.388,4.389
		c0,2.418,1.969,4.389,4.388,4.389s4.387-1.971,4.387-4.389C107.839,18.441,105.872,16.47,103.453,16.47z M102.292,23.223
		c-0.531-0.475-0.875-1.156-0.875-1.926c0-1.432,1.162-2.592,2.592-2.592c0.795,0,1.498,0.366,1.975,0.931
		C104.07,19.842,102.548,21.324,102.292,23.223z"/>
	<g>
		<circle id="back_13_" fill="#94C11C" cx="181.417" cy="19.843" r="19.843"/>
		<g>
			<path fill="#FFFFFF" d="M173.871,14.882h-3.455c-0.871,0-1.795,1.034-1.795,2.042V28.55c0,1.009,0.924,1.876,1.795,1.876h3.455
				c0.873,0,1.199-0.867,1.199-1.876V16.924C175.07,15.916,174.744,14.882,173.871,14.882L173.871,14.882z M173.871,14.882"/>
			<path fill="#FFFFFF" d="M193.458,19.167c0.467-0.442,0.758-1.067,0.758-1.759c0-0.646-0.252-1.308-0.709-1.765
				c-0.461-0.458-1.066-0.762-1.713-0.762h-5.6c1.564-4.887-1.217-8.081-1.344-8.226c0-0.002-0.004,0.021-0.008,0.017
				c-0.457-0.594-1.168-0.935-1.916-0.935c-1.338,0-2.422,1.093-2.422,2.431c0,0.08,0.004,0.166,0.01,0.245
				c-0.018,0.089-0.016,0.183,0.004,0.271c0.463,2.123-0.502,4.535-1.119,5.784c-0.051,0.108-0.104,0.16-0.154,0.256
				c-0.092,0.11-0.219,0.156-0.361,0.156h-0.182c-0.035,0-0.162,0.054-0.199,0.059c-1.008,0.052-1.891,0.926-1.891,1.937v11.611
				c0,1.045,1.047,1.938,2.09,1.938h13.09c0.055,0,0.109-0.027,0.162-0.043c1.227-0.128,2.172-1.173,2.172-2.416
				c0-0.668-0.271-1.279-0.715-1.719c0.494-0.443,0.805-1.091,0.805-1.805c0-0.691-0.291-1.316-0.758-1.759
				c0.467-0.442,0.758-1.067,0.758-1.759C194.216,20.234,193.925,19.61,193.458,19.167L193.458,19.167z M193.458,19.167"/>
		</g>
	</g>
</g>
</svg>
